<?xml version="1.0" encoding="utf-8"?>
<!-- Generator: Adobe Illustrator 19.1.0, SVG Export Plug-In . SVG Version: 6.00 Build 0)  -->
<!DOCTYPE svg PUBLIC "-//W3C//DTD SVG 1.1//EN" "http://www.w3.org/Graphics/SVG/1.1/DTD/svg11.dtd">
<svg version="1.1" xmlns="http://www.w3.org/2000/svg" xmlns:xlink="http://www.w3.org/1999/xlink" x="0px" y="0px"
	 viewBox="0 0 100 100" style="enable-background:new 0 0 100 100;" xml:space="preserve">
<style type="text/css">
	.st0{fill:#D32210;}
	.st1{fill:#FFFFFF;}
	.st2{fill:#006DB1;}
</style>
<g id="Layer_2">
	<rect class="st0" width="100" height="100"/>
</g>
<g id="Layer_1">
	<g>
		<circle class="st1" cx="50" cy="50" r="35.9"/>
		<g>
			<g>
				<path class="st2" d="M20.2,36.7l1.1-2c0.4-0.9,1.8-2,3.6-0.9c1.6,0.9,2,2.3,1.1,3.9l-0.7,1.6L20.2,36.7z M24.8,37.9l0.4-0.7
					c0.5-0.9,0-1.8-0.9-2.3s-2-0.5-2.5,0.5l-0.4,0.7L24.8,37.9z"/>
				<path class="st2" d="M24.6,29.6l2.5-2.8l0.7,0.5L26.2,29l1.1,0.9l1.4-1.4l0.7,0.5l-1.6,1.8l1.1,1.1l1.8-2l0.7,0.5l-2.7,2.8
					L24.6,29.6z"/>
				<path class="st2" d="M29.9,24.2l1.2-0.9l2.8,1.4c0.5,0.4,1.2,0.7,1.6,1.1l0,0c-0.2-0.2-0.5-0.7-0.9-1.2l-1.6-2.3l0.9-0.7l3,4.6
					l-1.2,0.9l-3.2-1.8c-0.4-0.2-0.9-0.4-1.1-0.7l0,0c0.2,0.4,0.4,0.7,0.7,1.2l1.8,2.5l-0.9,0.5L29.9,24.2z"/>
				<path class="st2" d="M42.2,18.4l1.4-0.2l2,2.5c0.4,0.5,0.9,1.2,1.1,1.6l0,0c0-0.4-0.2-0.9-0.4-1.6l-0.5-2.8l1.1-0.2l1.1,5.5
					l-1.6,0.2l-2.1-2.8c-0.2-0.4-0.5-0.7-0.7-1.1l0,0c0,0.4,0.2,0.9,0.2,1.2l0.5,3l-1.1,0.2L42.2,18.4z"/>
				<path class="st2" d="M50.4,20.2c0.2-2,1.4-2.8,2.8-2.7c1.6,0.2,2.5,1.2,2.3,3.2c-0.2,2-1.4,2.8-2.8,2.7
					C51.1,23.2,50.2,22.1,50.4,20.2z M54.4,20.7c0.2-1.4-0.4-2.1-1.2-2.1s-1.4,0.5-1.6,2c-0.2,1.4,0.4,2.1,1.2,2.1
					C53.6,22.7,54.3,22.1,54.4,20.7z"/>
				<path class="st2" d="M60.3,22.7l-0.9-0.4l-0.9,2.1l-1.1-0.4l2-5.3l2.1,0.9c1.1,0.4,1.4,1.2,1.1,2.1c-0.4,0.7-0.7,0.9-1.4,1.1
					l0.4,2.8l-1.2-0.5L60.3,22.7z M60.7,21.9c0.5,0.2,0.9,0.2,1.1-0.4c0.2-0.5,0-0.9-0.4-0.9l-0.9-0.4l-0.5,1.4L60.7,21.9z"/>
				<path class="st2" d="M68.1,24.8c0-0.2,0.2-0.7-0.4-1.1c-0.5-0.4-0.9-0.2-1.1,0s-0.2,0.4,0,0.7l0.7,1.1c0.5,0.7,0.5,1.2,0.2,2
					c-0.5,0.7-1.6,1.1-2.8,0.2c-1.1-0.7-1.2-1.6-0.9-2.3l1.1,0.2c-0.2,0.4-0.2,0.9,0.4,1.2c0.5,0.4,0.9,0.4,1.2-0.2
					c0.2-0.2,0.2-0.5-0.2-0.9L66,25.5c-0.5-0.7-0.9-1.4-0.4-2.1c0.4-0.7,1.4-1.1,2.7-0.2c0.7,0.5,1.2,1.1,0.9,2L68.1,24.8z"/>
				<path class="st2" d="M72.7,26.7l0.7,0.9l-1.8,1.6l0,0l3-0.2l0.9,1.1L72,30.3L71.5,34L70.4,33l0.5-3.2l0,0l-2,1.8l-0.7-0.9
					L72.7,26.7z"/>
				<path class="st2" d="M77.7,33l1.8,3.2l-0.7,0.4l-1.2-2.1l-1.2,0.7l1.1,2.1l-0.7,0.4l-1.2-2L74,36.3l1.2,2.3L74.5,39l-1.8-3.2
					L77.7,33z"/>
			</g>
			<g>
				<path class="st2" d="M21.9,52.7l-0.2-1.6l0.9-0.2l0.5,4.3l-0.9,0.2l-0.2-1.6l-4.6,0.5L17.3,53L21.9,52.7z"/>
				<path class="st2" d="M25.1,61.4l-3.2,1.2c-1.4,0.5-2.5,0-3-1.4c-0.5-1.2,0-2.3,1.4-2.8l3.2-1.2l0.4,1.1l-3.2,1.2
					c-0.9,0.4-1.2,0.7-1.1,1.6c0.4,0.7,0.9,0.9,1.8,0.5l3.2-1.2L25.1,61.4z"/>
				<path class="st2" d="M24.8,67l-0.5-0.7l-2,1.2l-0.7-0.9l4.6-3.2l1.2,2c0.7,1.1,0.4,1.8-0.4,2.3c-0.7,0.4-1.2,0.4-1.8,0l-1.4,2.5
					l-0.5-1.1L24.8,67z M25.5,66.5c0.4,0.4,0.7,0.5,1.1,0.2c0.5-0.4,0.5-0.7,0.2-1.1l-0.5-0.9L25,65.8L25.5,66.5z"/>
				<path class="st2" d="M30.3,68.6l0.9,0.9l-4.1,3.9l-0.9-0.9L30.3,68.6z"/>
				<path class="st2" d="M34.4,74c0-0.2,0.2-0.7-0.4-1.1s-0.9-0.2-1.1,0c-0.2,0.2-0.2,0.4,0,0.7l0.7,1.1c0.5,0.7,0.5,1.2,0.2,2
					c-0.5,0.7-1.6,1.1-2.8,0.2c-1.1-0.7-1.1-1.8-0.9-2.3l1.1,0.4c-0.2,0.4-0.2,0.9,0.4,1.2c0.5,0.4,0.9,0.4,1.2,0
					c0.2-0.2,0.2-0.5-0.2-0.9l-0.4-0.7c-0.4-0.7-0.9-1.4-0.4-2.1c0.5-0.7,1.4-1.1,2.7-0.2c0.7,0.5,1.2,1.1,0.9,2.1L34.4,74z"/>
				<path class="st2" d="M38.8,75.8l-1.4-0.5l0.4-0.9l3.9,1.6l-0.4,0.9l-1.4-0.5l-1.8,4.3L37,80L38.8,75.8z"/>
				<path class="st2" d="M43.6,76.5l3.6,0.7L47,78.1l-2.5-0.4l-0.2,1.4l2.3,0.4l-0.2,0.9L44.1,80l-0.4,2.3l-1.2-0.2L43.6,76.5z"/>
				<path class="st2" d="M49.3,80c-0.2-2,0.9-3,2.5-3.2s2.7,0.9,2.8,2.8c0.2,2-0.9,3-2.5,3.2C50.5,82.9,49.3,82,49.3,80z M53.2,79.8
					c-0.2-1.4-0.7-2-1.6-2s-1.4,0.7-1.2,2.1s0.7,2,1.6,2C52.8,81.8,53.4,81.3,53.2,79.8z"/>
				<path class="st2" d="M59.4,78.9l-0.9,0.4l0.7,2.1l-1.1,0.4l-1.8-5.3l2.3-0.7c1.2-0.4,2,0,2.1,1.1c0.2,0.7,0,1.2-0.5,1.6l2,2.1
					L61,80.9L59.4,78.9z M59.1,78.1c0.5-0.2,0.7-0.5,0.5-1.1c-0.2-0.5-0.5-0.7-0.9-0.5l-1.1,0.4l0.5,1.4L59.1,78.1z"/>
				<path class="st2" d="M62.3,74.2l3.2-2l0.5,0.7l-2.1,1.2l0.7,1.2l2-1.2l0.5,0.7l-2,1.2l0.9,1.2l2.1-1.2l0.5,0.7l-3.2,2L62.3,74.2
					z"/>
				<path class="st2" d="M67.4,71l1.1-1.1l3,0.9c0.5,0.2,1.4,0.5,1.8,0.7l0,0c-0.2-0.2-0.7-0.7-1.1-1.1l-2-2l0.7-0.7l3.9,3.9
					l-1.1,1.1l-3.6-1.1c-0.4-0.2-0.9-0.4-1.2-0.5l0,0c0.4,0.2,0.7,0.5,0.9,0.9l2.1,2.1l-0.7,0.7L67.4,71z"/>
				<path class="st2" d="M72.2,65.5l0.7-1.1l4.6,3l-0.7,1.1L72.2,65.5z"/>
				<path class="st2" d="M74.2,62.3l0.5-1.4l3-0.4c0.5,0,1.4-0.2,1.8,0l0,0c-0.4,0-0.9-0.4-1.4-0.5l-2.5-1.2l0.4-1.1l5.2,2.1
					l-0.5,1.4L77,61.5c-0.4,0-0.9,0-1.2,0l0,0c0.4,0.2,0.7,0.2,1.2,0.4l2.8,1.1L79.5,64L74.2,62.3z"/>
				<path class="st2" d="M78.4,52.1c-0.4,0-0.9,0.4-0.9,0.9c-0.2,0.9,0.5,1.4,2,1.6c1.4,0.2,2.1-0.4,2.1-1.1c0-0.4,0-0.7-0.2-1.1
					l-1.2,0v0.9h-0.9l0.2-2.1l2.7,0.4c0.2,0.4,0.5,1.2,0.4,2.1c-0.2,1.6-1.2,2.5-3.2,2.3c-2-0.2-2.8-1.4-2.7-3
					c0.2-1.2,0.9-1.8,1.6-2L78.4,52.1z"/>
			</g>
			<path class="st2" d="M20.7,46.6c1.1,0,2-0.9,2-2s-0.9-2-2-2s-2,0.9-2,2C18.9,45.7,19.6,46.6,20.7,46.6z"/>
			<path class="st2" d="M79.1,46.6c1.1,0,2-0.9,2-2s-0.9-2-2-2c-1.1,0-2,0.9-2,2S78.1,46.6,79.1,46.6z"/>
			<path class="st0" d="M31.4,37.9c0,0,0-5.3,4.3-5.3c5,0,28.2,0,29.1,0c1.1,0,4.4,1.1,4.4,5.2c0,3.9-2.5,5.3-4.3,5.3s-9.2,0-9.2,0
				c0,3.7,0,24.2,0,25.6c0,1.4-0.7,4.6-5.7,4.6s-5.5-3.2-5.5-4.6c0-0.5,0-25.6,0-25.6c-4.8,0-7.1,0-8.9,0
				C33.5,43.3,31.2,41.5,31.4,37.9z"/>
		</g>
	</g>
</g>
</svg>
